<svg width="26" height="26" viewBox="0 0 26 26" fill="none" xmlns="http://www.w3.org/2000/svg">
<path d="M25.8325 8.90946C25.7054 8.78462 25.5279 8.72542 25.3513 8.74906H18.4538V5.70133C18.4538 2.68928 16.0121 0.247559 13.0001 0.247559C9.98802 0.247559 7.5463 2.68928 7.5463 5.70133V8.74906H0.648766C0.456261 8.74906 0.263817 8.74906 0.167533 8.90946C0.0382134 9.03374 -0.0217796 9.21366 0.00714232 9.39069L2.41325 22.544C2.74938 24.3788 4.3337 25.7214 6.19882 25.7521H19.8012C21.6717 25.7061 23.2527 24.3528 23.5868 22.5119L25.9929 9.39069C26.0218 9.21366 25.9618 9.03374 25.8325 8.90946ZM8.82949 5.70133C8.82949 3.39802 10.6967 1.53081 13 1.53081C15.3033 1.53081 17.1705 3.39802 17.1705 5.70133V8.74906H8.82949V5.70133ZM22.3035 22.3515C22.0874 23.5673 21.0361 24.457 19.8012 24.4688H6.19882C4.96396 24.457 3.91258 23.5674 3.6965 22.3515L1.41873 10.0323H24.5813L22.3035 22.3515Z" fill="#29827C"/>
</svg>
